<svg width="14" height="18" viewBox="0 0 14 18" fill="none" xmlns="http://www.w3.org/2000/svg">
<path d="M13.25 1.33701e-08C13.6297 1.33701e-08 13.9435 0.282154 13.9932 0.648229L14 0.75V17.25C14 17.6642 13.6642 18 13.25 18C12.8703 18 12.5565 17.7178 12.5068 17.3518L12.5 17.25V0.75C12.5 0.335786 12.8358 1.33701e-08 13.25 1.33701e-08ZM0.21967 0.21967C0.485936 -0.0465967 0.9026 -0.0708026 1.19621 0.147052L1.28033 0.21967L9.53033 8.46967C9.7966 8.73594 9.8208 9.1526 9.60295 9.44621L9.53033 9.53033L1.28033 17.7803C0.987437 18.0732 0.512563 18.0732 0.21967 17.7803C-0.0465966 17.5141 -0.0708026 17.0974 0.147052 16.8038L0.21967 16.7197L7.93934 9L0.21967 1.28033C-0.0732233 0.987437 -0.0732233 0.512563 0.21967 0.21967Z" fill="black"/>
</svg>
