<svg width="15" height="14" viewBox="0 0 15 14" fill="none" xmlns="http://www.w3.org/2000/svg">
<path d="M5.5 8.24952C5.91421 8.24952 6.25 7.91373 6.25 7.49952C6.25 7.0853 5.91421 6.74952 5.5 6.74952C5.08579 6.74952 4.75 7.0853 4.75 7.49952C4.75 7.91373 5.08579 8.24952 5.5 8.24952ZM8 0.499515C8 0.353715 7.93636 0.215178 7.82575 0.12019C7.71514 0.0252015 7.56857 -0.0167745 7.42445 0.00525614L0.424449 1.07526C0.180316 1.11257 0 1.32255 0 1.56952V12.4295C0 12.6765 0.180277 12.8864 0.424378 12.9238L7.42438 13.9948C7.56851 14.0168 7.71509 13.9749 7.82572 13.8799C7.93635 13.7849 8 13.6464 8 13.5005V6.99953L13.1722 6.99953L12.1753 7.87323C11.9679 8.05507 11.9468 8.37096 12.1284 8.57877C12.3099 8.78659 12.6253 8.80765 12.8328 8.62581L14.8295 6.87581C14.9379 6.78087 15 6.6437 15 6.49952C15 6.35534 14.9379 6.21818 14.8295 6.12323L12.8328 4.37323C12.6253 4.19139 12.3099 4.21245 12.1284 4.42027C11.9468 4.62809 11.9679 4.94397 12.1753 5.12581L13.1723 5.99953L8 5.99953V0.499515ZM7 1.08175V12.9182L1 12.0002V1.99889L7 1.08175ZM9.5 12.9995H9V7.99952H10V12.4995C10 12.7757 9.77614 12.9995 9.5 12.9995ZM9 4.99952V0.999515H9.5C9.77614 0.999515 10 1.22337 10 1.49952V4.99952H9Z" fill="#212121"/>
</svg>
