<svg width="204" height="69" viewBox="0 0 204 69" fill="none" xmlns="http://www.w3.org/2000/svg">
<path d="M0 68.8828V19.3468H8.448V31.7308H8.832V68.8828H0ZM5.856 38.8348C5.856 35.6828 6.496 32.5548 7.776 29.4508C9.072 26.3468 11.088 23.7628 13.824 21.6988C16.56 19.6188 19.984 18.5788 24.096 18.5788C24.512 18.5788 24.936 18.5948 25.368 18.6268C25.816 18.6428 26.288 18.6748 26.784 18.7228V27.0268C26.368 27.0268 25.968 27.0268 25.584 27.0268C25.216 27.0268 24.88 27.0268 24.576 27.0268C21.312 27.0268 18.504 27.5708 16.152 28.6588C13.8 29.7468 11.992 31.3788 10.728 33.5548C9.464 35.7148 8.832 38.3708 8.832 41.5228H5.856V38.8348Z" fill="white"/>
<path d="M53.109 69.0002C48.357 69.0002 44.133 67.9362 40.437 65.8082C36.757 63.6802 33.885 60.6642 31.821 56.7602C29.757 52.8402 28.725 48.2802 28.725 43.0802C28.725 37.8802 29.757 33.3282 31.821 29.4242C33.885 25.5042 36.757 22.4802 40.437 20.3522C44.133 18.2242 48.357 17.1602 53.109 17.1602C57.829 17.1602 62.021 18.2242 65.685 20.3522C69.365 22.4802 72.237 25.5042 74.301 29.4242C76.365 33.3282 77.397 37.8802 77.397 43.0802C77.397 48.2802 76.365 52.8402 74.301 56.7602C72.237 60.6642 69.365 63.6802 65.685 65.8082C62.021 67.9362 57.829 69.0002 53.109 69.0002ZM53.109 61.3202C56.149 61.3202 58.797 60.6082 61.053 59.1842C63.325 57.7442 65.077 55.6562 66.309 52.9202C67.557 50.1682 68.181 46.8882 68.181 43.0802C68.181 39.2722 67.557 36.0002 66.309 33.2642C65.077 30.5122 63.325 28.4242 61.053 27.0002C58.797 25.5602 56.149 24.8402 53.109 24.8402C50.037 24.8402 47.357 25.5602 45.069 27.0002C42.797 28.4242 41.037 30.5042 39.789 33.2402C38.557 35.9762 37.941 39.2562 37.941 43.0802C37.941 46.9042 38.557 50.1842 39.789 52.9202C41.037 55.6562 42.797 57.7442 45.069 59.1842C47.357 60.6082 50.037 61.3202 53.109 61.3202Z" fill="white"/>
<path d="M108.14 69.0002C103.388 69.0002 99.1642 67.9362 95.4682 65.8082C91.7882 63.6802 88.9162 60.6642 86.8522 56.7602C84.7882 52.8402 83.7562 48.2802 83.7562 43.0802C83.7562 37.8802 84.7882 33.3282 86.8522 29.4242C88.9162 25.5042 91.7882 22.4802 95.4682 20.3522C99.1642 18.2242 103.388 17.1602 108.14 17.1602C112.86 17.1602 117.052 18.2242 120.716 20.3522C124.396 22.4802 127.268 25.5042 129.332 29.4242C131.396 33.3282 132.428 37.8802 132.428 43.0802C132.428 48.2802 131.396 52.8402 129.332 56.7602C127.268 60.6642 124.396 63.6802 120.716 65.8082C117.052 67.9362 112.86 69.0002 108.14 69.0002ZM108.14 61.3202C111.18 61.3202 113.828 60.6082 116.084 59.1842C118.356 57.7442 120.108 55.6562 121.34 52.9202C122.588 50.1682 123.212 46.8882 123.212 43.0802C123.212 39.2722 122.588 36.0002 121.34 33.2642C120.108 30.5122 118.356 28.4242 116.084 27.0002C113.828 25.5602 111.18 24.8402 108.14 24.8402C105.068 24.8402 102.388 25.5602 100.1 27.0002C97.8282 28.4242 96.0683 30.5042 94.8203 33.2402C93.5883 35.9762 92.9723 39.2562 92.9723 43.0802C92.9723 46.9042 93.5883 50.1842 94.8203 52.9202C96.0683 55.6562 97.8282 57.7442 100.1 59.1842C102.388 60.6082 105.068 61.3202 108.14 61.3202Z" fill="white"/>
<path d="M173.732 36.6268C173.732 34.2268 173.308 32.2428 172.46 30.6748C171.628 29.1068 170.411 27.9468 168.811 27.1948C167.227 26.4428 165.284 26.0668 162.98 26.0668C160.804 26.0668 158.724 26.6108 156.74 27.6988C154.772 28.7868 153.155 30.4508 151.891 32.6908C150.643 34.9148 150.02 37.6668 150.02 40.9468H143.971V31.5388H147.236C148.1 29.0268 149.363 26.7708 151.027 24.7708C152.707 22.7548 154.756 21.1548 157.172 19.9708C159.588 18.7868 162.259 18.1948 165.188 18.1948C168.803 18.1948 171.907 18.8748 174.499 20.2348C177.107 21.5788 179.099 23.5548 180.475 26.1628C181.867 28.7548 182.564 31.8908 182.564 35.5708V68.8828H173.732V36.6268ZM141.188 68.8828V0.530762H150.02V68.8828H141.188Z" fill="white"/>
<path d="M192.247 68.8828V58.3228H203.096V68.8828H192.247Z" fill="white"/>
</svg>
